<svg width="52" height="52" viewBox="0 0 52 52" fill="none" xmlns="http://www.w3.org/2000/svg">
<g clip-path="url(#clip0_25197_24214)">
<path d="M50.419 35.156L47.7563 32.4921L50.419 29.8312C52.527 27.7244 52.527 24.2999 50.419 22.1932L41.0615 12.8444V8.43295C41.0615 6.91723 39.9523 5.62774 38.4809 5.43545C37.6292 5.32234 36.7719 5.58249 36.1267 6.14806C35.8013 6.43367 35.5467 6.7815 35.3741 7.16325L29.7092 1.52738C27.6606 -0.511482 24.3472 -0.508654 22.2986 1.53304L1.58315 22.1988C-0.524888 24.3056 -0.524888 27.7301 1.58315 29.8368L4.24862 32.5006L3.3856 33.3631L2.60746 34.1408L2.59332 34.1549L1.58315 35.1644C-0.527718 37.274 -0.527718 40.6929 1.58315 42.8024L9.12117 50.3301C10.0804 51.2887 11.3424 51.908 12.6949 51.99C14.2625 52.0834 15.7509 51.5178 16.8516 50.4178L24.3472 42.9466C25.2696 42.0276 26.7636 42.0276 27.6861 42.9495L35.1449 50.4149C36.2456 51.5121 37.7339 52.0805 39.3015 51.9872C40.6541 51.9052 41.9189 51.2859 42.8753 50.3273L50.4161 42.7939C52.527 40.69 52.527 37.2627 50.419 35.156ZM3.88361 27.5293C3.04605 26.6923 3.04605 25.3349 3.88361 24.495L24.3302 4.06678C25.2526 3.14491 26.7467 3.14491 27.6691 4.06678L48.1157 24.495C48.9532 25.3321 48.9532 26.6894 48.1157 27.5293L45.453 30.1903L29.7432 14.4789C27.6974 12.4315 24.3783 12.4287 22.3268 14.4704L6.55473 30.1959L3.88361 27.5293ZM42.2867 33.3546L40.5409 35.0994C40.1561 35.484 39.6524 35.7441 39.1091 35.7781C38.4838 35.8177 37.8896 35.5914 37.451 35.1531L29.7064 27.4275C27.6578 25.383 24.3387 25.383 22.2929 27.4275L14.5483 35.1531C14.1437 35.5575 13.6032 35.7809 13.0317 35.7809C12.4573 35.7809 11.9196 35.5575 11.5122 35.1531L8.85519 32.4978L24.3585 17.0182C25.2809 16.0964 26.7778 16.0992 27.6974 17.0211L43.1498 32.4921L42.2867 33.3546ZM48.1157 40.4921L40.5409 48.0594C40.1561 48.4439 39.6524 48.7041 39.1091 48.738C38.4838 48.7776 37.8896 48.5514 37.451 48.1131L29.7064 40.3903C27.6578 38.3486 24.3415 38.3486 22.2957 40.3903L14.5511 48.1131C14.1126 48.5514 13.5183 48.7748 12.893 48.738C12.3497 48.7041 11.8461 48.4439 11.4612 48.0594L3.88644 40.4921C3.04888 39.655 3.04888 38.2977 3.88644 37.4578L4.8966 36.4483L6.5519 34.7968L9.124 37.3673C10.0832 38.326 11.3452 38.9453 12.6978 39.0273C14.2654 39.1206 15.7537 38.555 16.8544 37.455L24.35 29.9782C25.2724 29.0563 26.7693 29.0592 27.6889 29.981L35.1477 37.4522C36.2484 38.5494 37.7368 39.1178 39.3044 39.0244C40.6569 38.9424 41.9217 38.3231 42.8781 37.3645L43.345 36.8979L45.4559 34.7912L48.1185 37.455C48.9533 38.2949 48.9532 39.655 48.1157 40.4921Z" fill="#E03C31"/>
</g>
<defs>
<clipPath id="clip0_25197_24214">
<rect width="52" height="52" fill="white"/>
</clipPath>
</defs>
</svg>
